<svg width="30" height="30" viewBox="0 0 30 30" fill="none" xmlns="http://www.w3.org/2000/svg">
<g clip-path="url(#clip0)">
<path d="M15 0.624985C6.7125 0.624985 0 7.22499 0 15.365C0 21.8787 4.2975 27.4025 10.2563 29.35C11.0063 29.4887 11.2812 29.0325 11.2812 28.6412C11.2812 28.2912 11.2688 27.3637 11.2625 26.135C7.09 27.0237 6.21 24.1575 6.21 24.1575C5.5275 22.4562 4.54125 22.0012 4.54125 22.0012C3.1825 21.0875 4.64625 21.1062 4.64625 21.1062C6.1525 21.2087 6.94375 22.625 6.94375 22.625C8.28125 24.8787 10.455 24.2275 11.3125 23.8512C11.4475 22.8975 11.8338 22.2487 12.2625 21.88C8.93125 21.5112 5.43 20.2437 5.43 14.5962C5.43 12.9875 6.01125 11.6725 6.97375 10.6412C6.805 10.2687 6.29875 8.76999 7.105 6.73999C7.105 6.73999 8.36125 6.34499 11.23 8.25124C12.43 7.92374 13.705 7.76124 14.98 7.75374C16.255 7.76124 17.53 7.92374 18.73 8.25124C21.58 6.34499 22.8362 6.73999 22.8362 6.73999C23.6425 8.76999 23.1362 10.2687 22.9862 10.6412C23.9425 11.6725 24.5238 12.9875 24.5238 14.5962C24.5238 20.2587 21.0175 21.505 17.68 21.8675C18.205 22.31 18.6925 23.2137 18.6925 24.595C18.6925 26.5675 18.6737 28.1525 18.6737 28.6312C18.6737 29.0175 18.9363 29.4787 19.705 29.3312C25.7062 27.3962 30 21.8687 30 15.365C30 7.22499 23.2838 0.624985 15 0.624985Z" fill="white"/>
</g>
<defs>
<clipPath id="clip0">
<rect width="30" height="30" fill="white"/>
</clipPath>
</defs>
</svg>
