<svg width="53" height="48" viewBox="0 0 53 48" fill="none" xmlns="http://www.w3.org/2000/svg">
<path d="M14.0265 0C25.3545 0 31.0184 5.28553 31.0184 15.8566C31.0184 26.4277 25.3545 31.7132 14.0265 31.7132H0V0H14.0265ZM10.4022 24.1076H13.8383C18.2 24.1076 20.3809 21.8182 20.3809 17.2394V14.4738C20.3809 9.89501 18.2 7.60563 13.8383 7.60563H10.4022V24.1076Z" fill="white"/>
<path d="M52.0586 26.0128C52.0586 27.9488 51.5252 29.7004 50.4583 31.2676C49.3914 32.8348 47.8381 33.9872 45.7984 34.7247L53 48H41.3269L35.5845 36.4302H31.7248V48H21.3226V16.2868H41.1386C43.4607 16.2868 45.4376 16.7324 47.0693 17.6236C48.7324 18.484 49.9719 19.6671 50.7878 21.1729C51.635 22.6479 52.0586 24.2612 52.0586 26.0128ZM41.4681 26.4277C41.4681 25.5979 41.1857 24.9065 40.6209 24.3534C40.056 23.8003 39.3657 23.5237 38.5498 23.5237H31.7248V29.3777H38.5498C39.3657 29.3777 40.056 29.1012 40.6209 28.548C41.1857 27.9641 41.4681 27.2574 41.4681 26.4277Z" fill="white"/>
</svg>
