<svg width="30" height="30" viewBox="0 0 30 30" fill="none" xmlns="http://www.w3.org/2000/svg">
<g clip-path="url(#clip0)">
<path d="M29.5229 5.42577C28.8563 5.72134 28.1644 5.95452 27.4544 6.12334C28.2367 5.37991 28.8249 4.45004 29.1568 3.41214C29.2515 3.11584 28.9297 2.85962 28.6621 3.01827C27.6744 3.60414 26.6105 4.04366 25.4998 4.32475C25.4353 4.34106 25.3688 4.34933 25.3021 4.34933C25.0998 4.34933 24.9031 4.27421 24.7484 4.13787C23.5667 3.09638 22.0469 2.5228 20.469 2.5228C19.7862 2.5228 19.0968 2.62922 18.42 2.83914C16.3228 3.4896 14.7047 5.21951 14.197 7.35382C14.0065 8.15437 13.9549 8.95566 14.0436 9.73536C14.0538 9.82496 14.0114 9.8875 13.9853 9.91683C13.9394 9.96825 13.8744 9.99773 13.8069 9.99773C13.7994 9.99773 13.7916 9.99736 13.7839 9.99663C9.19333 9.57013 5.05372 7.3585 2.12763 3.76923C1.97842 3.58615 1.69229 3.60861 1.57336 3.8126C1.00035 4.79564 0.69754 5.92 0.69754 7.0641C0.69754 8.81749 1.40198 10.4699 2.62559 11.6745C2.11103 11.5525 1.613 11.3603 1.15037 11.1034C0.926551 10.979 0.651167 11.1388 0.648022 11.3948C0.615985 13.9996 2.14102 16.3174 4.42557 17.361C4.37956 17.3621 4.33356 17.3626 4.28748 17.3626C3.92534 17.3626 3.55868 17.3277 3.19779 17.2587C2.94574 17.2106 2.73399 17.4497 2.81225 17.6941C3.55378 20.0091 5.54707 21.7155 7.93241 22.103C5.95272 23.4319 3.64733 24.1329 1.24787 24.1329L0.499834 24.1325C0.26936 24.1325 0.074434 24.2827 0.0157002 24.5059C-0.042156 24.7258 0.0644135 24.9578 0.260949 25.0721C2.96476 26.6456 6.04883 27.4772 9.18111 27.4772C11.9229 27.4772 14.4876 26.9331 16.804 25.8601C18.9276 24.8764 20.8041 23.4702 22.3815 21.6807C23.851 20.0136 25.0001 18.0891 25.7967 15.9608C26.5562 13.932 26.9576 11.7673 26.9576 9.70055V9.6021C26.9575 9.27025 27.1076 8.958 27.3695 8.74544C28.3631 7.93868 29.2284 6.98899 29.9412 5.92278C30.1294 5.64125 29.8326 5.28841 29.5229 5.42577Z" fill="white"/>
</g>
<defs>
<clipPath id="clip0">
<rect width="30" height="30" fill="white"/>
</clipPath>
</defs>
</svg>
